<svg id="Group_67090" data-name="Group 67090" xmlns="http://www.w3.org/2000/svg" width="78.272" height="75.813" viewBox="0 0 78.272 75.813">
  <g id="Group_67086" data-name="Group 67086" transform="translate(0 0)">
    <g id="XMLID_1083_" transform="translate(0 0)">
      <g id="XMLID_169_" transform="translate(0)">
        <path id="XMLID_191_" d="M72.874,41.874a1.529,1.529,0,0,0,0,3.058,2.34,2.34,0,0,1,0,4.681h-2.9A27.811,27.811,0,0,0,55.342,26.618a16.573,16.573,0,0,0,.151-2.217,16.358,16.358,0,1,0-32.715,0c0,.352.014.7.036,1.05l-.082.033-6.771-3.927a2.781,2.781,0,0,0-4.177,2.406v9.8a27.582,27.582,0,0,0-4.573,8.283H4.242A4.247,4.247,0,0,0,0,46.287V56a4.247,4.247,0,0,0,4.242,4.242h2.97A27.931,27.931,0,0,0,17.377,73.81v6.8a3.248,3.248,0,0,0,3.245,3.244h5.7A3.232,3.232,0,0,0,29.2,82.1l1.675-3.256c.878.083,1.76.124,2.634.124h8.681c.874,0,1.757-.042,2.634-.124L46.5,82.1a3.232,3.232,0,0,0,2.885,1.76h5.7a3.248,3.248,0,0,0,3.245-3.244v-6.8A27.789,27.789,0,0,0,69.973,52.67h2.9a5.4,5.4,0,0,0,0-10.8ZM39.136,11.1A13.3,13.3,0,0,1,50.678,31.012,23.9,23.9,0,0,0,43.663,28.5c.347-.642-3.417-.823-4.527-.823s-4.873.186-4.523.829A23.9,23.9,0,0,0,27.6,31.028,13.3,13.3,0,0,1,39.136,11.1ZM55.95,71.737a1.529,1.529,0,0,0-.678,1.271v7.6a.187.187,0,0,1-.187.187h-5.7a.186.186,0,0,1-.166-.1L47.064,76.5a1.528,1.528,0,0,0-1.561-.816,25.137,25.137,0,0,1-3.309.22H33.512a25.137,25.137,0,0,1-3.309-.22,1.526,1.526,0,0,0-1.561.816L26.484,80.7a.186.186,0,0,1-.166.1h-5.7a.187.187,0,0,1-.187-.187v-7.6a1.529,1.529,0,0,0-.678-1.271A24.848,24.848,0,0,1,9.789,58.269,1.529,1.529,0,0,0,8.325,57.18H4.242a1.186,1.186,0,0,1-1.185-1.185V52.67H5.2a1.529,1.529,0,0,0,0-3.058H3.058V46.287A1.186,1.186,0,0,1,4.242,45.1H8.325a1.529,1.529,0,0,0,1.464-1.089,24.571,24.571,0,0,1,4.7-8.727,1.529,1.529,0,0,0,.355-.979V24.443l7.026,4.075a1.529,1.529,0,0,0,1.4.069l.046-.02a16.172,16.172,0,0,0,1.707,4.1,24.057,24.057,0,0,0-2.83,2.423,1.529,1.529,0,0,0,2.162,2.162,20.956,20.956,0,0,1,29.6,0,1.529,1.529,0,1,0,2.162-2.162,24.062,24.062,0,0,0-2.857-2.442,16.193,16.193,0,0,0,1.35-2.938A24.77,24.77,0,0,1,55.95,71.737Z" transform="translate(0 -8.043)" fill="#00b1c4"/>
        <path id="XMLID_733_" d="M115.2,219.96a1.529,1.529,0,1,0,1.081.448A1.531,1.531,0,0,0,115.2,219.96Z" transform="translate(-96.293 -187.563)" fill="#00b1c4"/>
      </g>
    </g>
    <path id="_" data-name="৳" d="M6.8-20.122a1.583,1.583,0,0,0,.608-.134,3.165,3.165,0,0,0,.632-.358,4.3,4.3,0,0,0,.595-.521,4.531,4.531,0,0,0,.5-.625,3.318,3.318,0,0,0,.344-.665,1.831,1.831,0,0,0,.127-.645,2.13,2.13,0,0,0-.207-.916l-.14.04a1.575,1.575,0,0,1-.107.388,1.158,1.158,0,0,1-.227.351,1.145,1.145,0,0,1-.368.257,1.269,1.269,0,0,1-.528.1,1.506,1.506,0,0,1-.595-.114,1.4,1.4,0,0,1-.458-.307,1.363,1.363,0,0,1-.294-.451,1.445,1.445,0,0,1-.1-.545,1.848,1.848,0,0,1,.08-.5,1.322,1.322,0,0,1,.3-.525,1.731,1.731,0,0,1,.6-.411,2.531,2.531,0,0,1,1-.167,2.912,2.912,0,0,1,1.243.244,2.473,2.473,0,0,1,.859.645,2.648,2.648,0,0,1,.5.922,3.592,3.592,0,0,1,.164,1.083,3.774,3.774,0,0,1-.214,1.28,4.542,4.542,0,0,1-.571,1.1,5.181,5.181,0,0,1-.815.906,5.913,5.913,0,0,1-.946.682,4.762,4.762,0,0,1-.962.428,2.957,2.957,0,0,1-.869.147,2.866,2.866,0,0,1-.551-.063,2.971,2.971,0,0,1-.658-.221,3.07,3.07,0,0,1-.668-.428,2.839,2.839,0,0,1-.588-.685,3.73,3.73,0,0,1-.421-.993,5.062,5.062,0,0,1-.16-1.347v-4.251H2.051v-1.5H3.9v-2.212l-.04-.02a.745.745,0,0,1-.13.03.926.926,0,0,1-.13.01.825.825,0,0,1-.334-.07.907.907,0,0,1-.281-.19.944.944,0,0,1-.194-.284.847.847,0,0,1-.074-.351,1.026,1.026,0,0,1,.08-.381,1.115,1.115,0,0,1,.244-.368,1.32,1.32,0,0,1,.411-.277,1.418,1.418,0,0,1,.581-.11,1.33,1.33,0,0,1,.769.211,1.576,1.576,0,0,1,.495.551,2.57,2.57,0,0,1,.267.769,4.669,4.669,0,0,1,.08.862v1.831h5.935v1.5H5.647v4.037a5.6,5.6,0,0,0,.063.912,2.947,2.947,0,0,0,.167.628,1.355,1.355,0,0,0,.234.394,1.1,1.1,0,0,0,.257.217.684.684,0,0,0,.241.09A1.335,1.335,0,0,0,6.8-20.122Z" transform="translate(32.32 38.177)" fill="#00b1c4"/>
  </g>
  <g id="Group_67087" data-name="Group 67087" transform="translate(24.468 30.17)">
    <path id="_2" data-name="৳" d="M8.242-16.458a2.066,2.066,0,0,0,.794-.174A4.129,4.129,0,0,0,9.86-17.1a5.607,5.607,0,0,0,.776-.68,5.912,5.912,0,0,0,.654-.815,4.329,4.329,0,0,0,.449-.868,2.389,2.389,0,0,0,.166-.842,2.779,2.779,0,0,0-.27-1.195l-.183.052a2.055,2.055,0,0,1-.14.506,1.511,1.511,0,0,1-.3.458,1.494,1.494,0,0,1-.48.336,1.655,1.655,0,0,1-.689.131,1.965,1.965,0,0,1-.776-.148,1.83,1.83,0,0,1-.6-.4,1.778,1.778,0,0,1-.384-.589,1.885,1.885,0,0,1-.135-.711,2.412,2.412,0,0,1,.1-.654,1.725,1.725,0,0,1,.392-.685,2.259,2.259,0,0,1,.789-.536,3.3,3.3,0,0,1,1.3-.218,3.8,3.8,0,0,1,1.622.318,3.226,3.226,0,0,1,1.121.842,3.455,3.455,0,0,1,.654,1.2,4.687,4.687,0,0,1,.214,1.413,4.924,4.924,0,0,1-.279,1.67,5.926,5.926,0,0,1-.746,1.439,6.76,6.76,0,0,1-1.064,1.182,7.714,7.714,0,0,1-1.234.89,6.213,6.213,0,0,1-1.256.558,3.858,3.858,0,0,1-1.134.192,3.739,3.739,0,0,1-.719-.083,3.876,3.876,0,0,1-.859-.288,4,4,0,0,1-.872-.558,3.7,3.7,0,0,1-.767-.894,4.866,4.866,0,0,1-.549-1.3,6.6,6.6,0,0,1-.209-1.757v-5.546H2.051v-1.962H4.466v-2.887l-.052-.026a.972.972,0,0,1-.17.039,1.208,1.208,0,0,1-.17.013,1.077,1.077,0,0,1-.436-.092,1.184,1.184,0,0,1-.366-.249,1.232,1.232,0,0,1-.253-.371,1.1,1.1,0,0,1-.1-.458,1.339,1.339,0,0,1,.1-.5,1.455,1.455,0,0,1,.318-.48A1.723,1.723,0,0,1,3.882-32a1.85,1.85,0,0,1,.759-.144,1.735,1.735,0,0,1,1,.275,2.056,2.056,0,0,1,.645.719,3.353,3.353,0,0,1,.349,1,6.091,6.091,0,0,1,.1,1.125v2.389h7.744v1.962H6.742v5.267a7.31,7.31,0,0,0,.083,1.19,3.845,3.845,0,0,0,.218.82,1.768,1.768,0,0,0,.305.515,1.438,1.438,0,0,0,.336.283A.893.893,0,0,0,8-16.479,1.742,1.742,0,0,0,8.242-16.458Z" transform="translate(6.4 37.425)" fill="#00b1c4"/>
    <path id="Path_21273" data-name="Path 21273" d="M29.668,2A14.668,14.668,0,1,0,44.337,16.668,14.668,14.668,0,0,0,29.668,2Zm0,27.611A12.943,12.943,0,1,1,42.611,16.668,12.943,12.943,0,0,1,29.668,29.611Z" transform="translate(-15 -2)" fill="#00b1c4"/>
  </g>
</svg>
