<svg xmlns="http://www.w3.org/2000/svg" width="79.485" height="76.988" viewBox="0 0 79.485 76.988">
  <g id="Group_67090" data-name="Group 67090" transform="translate(0)">
    <g id="Group_67086" data-name="Group 67086" transform="translate(0 0)">
      <g id="XMLID_1083_" transform="translate(0 0)">
        <g id="XMLID_169_" transform="translate(0 0)">
          <path id="XMLID_191_" d="M74,42.4a1.552,1.552,0,0,0,0,3.1,2.377,2.377,0,1,1,0,4.753H71.059A28.242,28.242,0,0,0,56.2,26.906a16.83,16.83,0,0,0,.154-2.252,16.611,16.611,0,1,0-33.222,0c0,.357.014.713.036,1.066l-.083.034-6.876-3.988a2.824,2.824,0,0,0-4.241,2.443v9.95a28.009,28.009,0,0,0-4.644,8.412H4.308A4.313,4.313,0,0,0,0,46.88v9.858a4.313,4.313,0,0,0,4.308,4.308H7.324A28.363,28.363,0,0,0,17.646,74.829v6.908a3.3,3.3,0,0,0,3.295,3.295h5.785a3.282,3.282,0,0,0,2.93-1.788l1.7-3.307c.891.084,1.787.126,2.675.126h8.816c.888,0,1.784-.042,2.675-.126l1.7,3.307a3.282,3.282,0,0,0,2.93,1.788h5.785a3.3,3.3,0,0,0,3.295-3.295V74.829A28.22,28.22,0,0,0,71.058,53.362H74A5.482,5.482,0,0,0,74,42.4ZM39.743,11.148a13.508,13.508,0,0,1,11.72,20.22,24.274,24.274,0,0,0-7.123-2.55c.352-.652-3.47-.836-4.6-.836s-4.948.189-4.594.842a24.266,24.266,0,0,0-7.117,2.56A13.508,13.508,0,0,1,39.743,11.148ZM56.817,72.724a1.553,1.553,0,0,0-.689,1.29v7.722a.19.19,0,0,1-.19.19H50.153a.189.189,0,0,1-.169-.1l-2.191-4.26a1.551,1.551,0,0,0-1.586-.829,25.526,25.526,0,0,1-3.36.224H34.031a25.527,25.527,0,0,1-3.36-.224,1.55,1.55,0,0,0-1.586.829l-2.191,4.26a.189.189,0,0,1-.169.1H20.941a.19.19,0,0,1-.19-.19V74.014a1.553,1.553,0,0,0-.689-1.29A25.233,25.233,0,0,1,9.941,59.047a1.552,1.552,0,0,0-1.487-1.106H4.308a1.2,1.2,0,0,1-1.2-1.2V53.361H5.278a1.552,1.552,0,0,0,0-3.1H3.1V46.88a1.2,1.2,0,0,1,1.2-1.2H8.454A1.552,1.552,0,0,0,9.941,44.57a24.952,24.952,0,0,1,4.771-8.862,1.552,1.552,0,0,0,.36-.994V24.7l7.135,4.138a1.553,1.553,0,0,0,1.422.07l.047-.021A16.423,16.423,0,0,0,25.41,33.05a24.43,24.43,0,0,0-2.873,2.46,1.553,1.553,0,1,0,2.2,2.2,21.28,21.28,0,0,1,30.061,0,1.552,1.552,0,1,0,2.2-2.2,24.435,24.435,0,0,0-2.9-2.48,16.445,16.445,0,0,0,1.37-2.984,25.154,25.154,0,0,1,1.359,42.677Z" transform="translate(0 -8.043)" fill="#00b1c4"/>
          <path id="XMLID_733_" d="M115.222,219.96a1.553,1.553,0,1,0,1.1.455A1.555,1.555,0,0,0,115.222,219.96Z" transform="translate(-96.023 -187.061)" fill="#00b1c4"/>
        </g>
      </g>
      <path id="_" data-name="৳" d="M6.87-19.935a1.608,1.608,0,0,0,.618-.136,3.214,3.214,0,0,0,.641-.363,4.365,4.365,0,0,0,.6-.529,4.6,4.6,0,0,0,.509-.635,3.369,3.369,0,0,0,.35-.675,1.859,1.859,0,0,0,.129-.655,2.163,2.163,0,0,0-.21-.93l-.143.041a1.6,1.6,0,0,1-.109.394,1.176,1.176,0,0,1-.231.356,1.163,1.163,0,0,1-.373.261,1.288,1.288,0,0,1-.536.1,1.53,1.53,0,0,1-.6-.115,1.425,1.425,0,0,1-.465-.312,1.384,1.384,0,0,1-.3-.458,1.467,1.467,0,0,1-.105-.553,1.877,1.877,0,0,1,.081-.509,1.343,1.343,0,0,1,.305-.533,1.758,1.758,0,0,1,.614-.417,2.571,2.571,0,0,1,1.015-.17,2.957,2.957,0,0,1,1.262.248,2.511,2.511,0,0,1,.872.655,2.689,2.689,0,0,1,.509.937,3.648,3.648,0,0,1,.166,1.1,3.832,3.832,0,0,1-.217,1.3,4.612,4.612,0,0,1-.58,1.12,5.261,5.261,0,0,1-.828.92,6,6,0,0,1-.96.692,4.836,4.836,0,0,1-.977.434,3,3,0,0,1-.882.149,2.91,2.91,0,0,1-.56-.064,3.017,3.017,0,0,1-.669-.224,3.117,3.117,0,0,1-.679-.434,2.883,2.883,0,0,1-.6-.7,3.787,3.787,0,0,1-.428-1.008,5.14,5.14,0,0,1-.163-1.368v-4.317H2.051v-1.527h1.88V-30.1l-.041-.02a.756.756,0,0,1-.132.031.94.94,0,0,1-.132.01.838.838,0,0,1-.339-.071A.921.921,0,0,1,3-30.347a.959.959,0,0,1-.2-.288.86.86,0,0,1-.075-.356,1.042,1.042,0,0,1,.081-.387,1.133,1.133,0,0,1,.248-.373,1.341,1.341,0,0,1,.417-.282,1.44,1.44,0,0,1,.591-.112,1.35,1.35,0,0,1,.781.214,1.6,1.6,0,0,1,.5.56,2.61,2.61,0,0,1,.271.781,4.741,4.741,0,0,1,.081.876v1.86H11.73v1.527H5.7v4.1a5.69,5.69,0,0,0,.064.926,2.992,2.992,0,0,0,.17.638,1.376,1.376,0,0,0,.238.4,1.12,1.12,0,0,0,.261.221.7.7,0,0,0,.244.092A1.356,1.356,0,0,0,6.87-19.935Z" transform="translate(32.852 38.27)" fill="#00b1c4"/>
    </g>
    <g id="Group_67087" data-name="Group 67087" transform="translate(24.847 30.638)">
      <path id="_2" data-name="৳" d="M8.338-16.214a2.1,2.1,0,0,0,.806-.177,4.193,4.193,0,0,0,.837-.474,5.694,5.694,0,0,0,.788-.691,6,6,0,0,0,.664-.828,4.4,4.4,0,0,0,.456-.881,2.426,2.426,0,0,0,.168-.855,2.822,2.822,0,0,0-.275-1.213l-.186.053a2.087,2.087,0,0,1-.142.514,1.534,1.534,0,0,1-.3.465,1.517,1.517,0,0,1-.487.341,1.681,1.681,0,0,1-.7.133,2,2,0,0,1-.788-.151,1.859,1.859,0,0,1-.607-.407,1.806,1.806,0,0,1-.39-.6,1.914,1.914,0,0,1-.137-.722,2.449,2.449,0,0,1,.106-.664,1.752,1.752,0,0,1,.4-.7,2.294,2.294,0,0,1,.8-.545,3.354,3.354,0,0,1,1.324-.221,3.858,3.858,0,0,1,1.647.323,3.276,3.276,0,0,1,1.138.855,3.509,3.509,0,0,1,.664,1.222A4.759,4.759,0,0,1,14.343-20a5,5,0,0,1-.283,1.7,6.018,6.018,0,0,1-.757,1.461,6.864,6.864,0,0,1-1.08,1.2,7.834,7.834,0,0,1-1.253.9,6.309,6.309,0,0,1-1.275.567,3.918,3.918,0,0,1-1.151.195,3.8,3.8,0,0,1-.731-.084,3.936,3.936,0,0,1-.872-.292,4.067,4.067,0,0,1-.886-.567,3.762,3.762,0,0,1-.779-.908,4.942,4.942,0,0,1-.558-1.315A6.707,6.707,0,0,1,4.5-18.924v-5.632H2.051v-1.993H4.5V-29.48l-.053-.027a.987.987,0,0,1-.173.04,1.227,1.227,0,0,1-.173.013,1.093,1.093,0,0,1-.443-.093,1.2,1.2,0,0,1-.372-.252,1.251,1.251,0,0,1-.257-.376,1.122,1.122,0,0,1-.1-.465,1.36,1.36,0,0,1,.106-.5,1.478,1.478,0,0,1,.323-.487A1.749,1.749,0,0,1,3.91-32a1.879,1.879,0,0,1,.77-.146,1.762,1.762,0,0,1,1.018.279,2.087,2.087,0,0,1,.655.731,3.405,3.405,0,0,1,.354,1.018,6.186,6.186,0,0,1,.106,1.142v2.426h7.864v1.993H6.815v5.349A7.423,7.423,0,0,0,6.9-18a3.9,3.9,0,0,0,.221.832,1.8,1.8,0,0,0,.31.522,1.461,1.461,0,0,0,.341.288.906.906,0,0,0,.319.12A1.769,1.769,0,0,0,8.338-16.214Z" transform="translate(6.531 37.507)" fill="#00b1c4"/>
      <path id="Path_21273" data-name="Path 21273" d="M29.9,2a14.9,14.9,0,1,0,14.9,14.9A14.9,14.9,0,0,0,29.9,2Zm0,28.039A13.143,13.143,0,1,1,43.039,16.9,13.143,13.143,0,0,1,29.9,30.039Z" transform="translate(-15 -2)" fill="#00b1c4"/>
    </g>
  </g>
</svg>
