<svg id="Group_67088" data-name="Group 67088" xmlns="http://www.w3.org/2000/svg" width="77.104" height="72.485" viewBox="0 0 77.104 72.485">
  <g id="_003-genuine" data-name="003-genuine" transform="translate(0 0)">
    <g id="Group_67081" data-name="Group 67081" transform="translate(0)">
      <path id="Path_21249" data-name="Path 21249" d="M1.55,26.333H75.658a1.418,1.418,0,1,0,0-2.831H73.126c.082-2.045.122-4.187.122-6.512a1.463,1.463,0,0,0-1.506-1.416c-8.306,0-15.063-6.351-15.063-14.157A1.463,1.463,0,0,0,55.173,0H22.036a1.463,1.463,0,0,0-1.506,1.416c0,7.806-6.757,14.157-15.063,14.157A1.463,1.463,0,0,0,3.96,16.989c0,2.33.04,4.471.121,6.512H1.55a1.418,1.418,0,1,0,0,2.831Zm5.428-7.987c8.766-.685,15.775-7.275,16.5-15.514H53.729c.727,8.239,7.736,14.829,16.5,15.514-.013,1.814-.052,3.517-.119,5.156H67.1c.021-.524.04-1.057.055-1.592a1.429,1.429,0,0,0-1.1-1.4A20.583,20.583,0,0,1,51.412,6.7,1.5,1.5,0,0,0,49.96,5.663H45.382a1.418,1.418,0,1,0,0,2.831h3.461A23.549,23.549,0,0,0,64.112,22.908q-.011.3-.023.594H13.12q-.012-.3-.023-.594A23.549,23.549,0,0,0,28.365,8.495h3.46a1.418,1.418,0,1,0,0-2.831H27.248A1.5,1.5,0,0,0,25.8,6.7,20.582,20.582,0,0,1,11.151,20.508a1.429,1.429,0,0,0-1.1,1.4c.015.536.034,1.068.055,1.592H7.1c-.067-1.636-.106-3.339-.119-5.156Z" transform="translate(-0.052 0)" fill="#00b1c4"/>
      <path id="Path_21250" data-name="Path 21250" d="M75.658,326H1.55a1.418,1.418,0,1,0,0,2.831H8.991c5.213,12.141,14.778,19.815,29.224,23.453a1.6,1.6,0,0,0,.78,0c14.446-3.638,24.011-11.312,29.225-23.453h7.44A1.418,1.418,0,1,0,75.658,326Zm-17.38,2.831c-.4.722-.826,1.418-1.267,2.08C52.975,336.967,46.951,341.1,38.6,343.549c-8.346-2.445-14.37-6.583-18.407-12.638-.441-.662-.865-1.357-1.267-2.08ZM38.6,349.45c-12.823-3.32-21.461-10.076-26.347-20.618h3.308a34.264,34.264,0,0,0,2.079,3.583c4.51,6.767,11.225,11.336,20.526,13.971a1.6,1.6,0,0,0,.869,0c9.3-2.635,16.015-7.2,20.526-13.971a34.28,34.28,0,0,0,2.079-3.583h3.309C60.066,339.374,51.428,346.129,38.6,349.45Z" transform="translate(-0.052 -279.847)" fill="#00b1c4"/>
      <path id="Path_21251" data-name="Path 21251" d="M23.7,207.944a.9.9,0,0,1,.9.9.9.9,0,0,0,1.8,0,2.7,2.7,0,0,0-5.408,0v3.605a2.7,2.7,0,0,0,5.408,0v-.9a.9.9,0,0,0-.9-.9h-.9a.9.9,0,0,0,0,1.8.9.9,0,0,1-1.8,0v-3.605A.9.9,0,0,1,23.7,207.944Z" transform="translate(-19.156 -178.535)" fill="#00b1c4"/>
      <path id="Path_21252" data-name="Path 21252" d="M100.054,207.8a.9.9,0,0,0,0-1.8H96.9a.9.9,0,0,0-.9.9v7.211a.9.9,0,0,0,.9.9h3.155a.9.9,0,0,0,0-1.8H97.8v-1.8h.991a.9.9,0,0,0,0-1.8H97.8v-1.8Z" transform="translate(-82.231 -178.393)" fill="#00b1c4"/>
      <path id="Path_21253" data-name="Path 21253" d="M170.055,206.9v3.77l-2.369-4.212A.9.9,0,0,0,166,206.9v7.211a.9.9,0,0,0,1.8,0v-3.77l2.369,4.212a.9.9,0,0,0,1.687-.442V206.9A.9.9,0,0,0,170.055,206.9Z" transform="translate(-140.863 -178.392)" fill="#00b1c4"/>
      <path id="Path_21254" data-name="Path 21254" d="M246.9,206a.9.9,0,0,0-.9.9v5.408a2.7,2.7,0,0,0,5.408,0V206.9a.9.9,0,0,0-1.8,0v5.408a.9.9,0,0,1-1.8,0V206.9A.9.9,0,0,0,246.9,206Z" transform="translate(-208.615 -178.393)" fill="#00b1c4"/>
      <path id="Path_21255" data-name="Path 21255" d="M321,206.949v7.211a.9.9,0,0,0,1.8,0v-7.211A.9.9,0,0,0,321,206.949Z" transform="translate(-271.972 -178.441)" fill="#00b1c4"/>
      <path id="Path_21256" data-name="Path 21256" d="M360.059,206.9v3.77l-2.369-4.212A.9.9,0,0,0,356,206.9v7.211a.9.9,0,0,0,1.8,0v-3.77l2.369,4.212a.9.9,0,0,0,1.687-.442V206.9A.9.9,0,0,0,360.059,206.9Z" transform="translate(-298.765 -178.392)" fill="#00b1c4"/>
      <path id="Path_21257" data-name="Path 21257" d="M440.06,207.8a.9.9,0,0,0,0-1.8h-3.155a.9.9,0,0,0-.9.9v7.211a.9.9,0,0,0,.9.9h3.155a.9.9,0,0,0,0-1.8h-2.253v-1.8h.991a.9.9,0,0,0,0-1.8h-.991v-1.8Z" transform="translate(-366.388 -178.393)" fill="#00b1c4"/>
      <path id="Path_21258" data-name="Path 21258" d="M247.459,42.831a1.416,1.416,0,0,0,0-2.831h0A1.416,1.416,0,0,0,247.459,42.831Z" transform="translate(-208.906 -34.337)" fill="#00b1c4"/>
    </g>
  </g>
  <path id="Path_21274" data-name="Path 21274" d="M9.051-25.7h-1.6L5.569-21.012H5.533L3.654-25.7h-1.6v6.611H3.283V-23.55H3.32l1.8,4.4h.87l1.8-4.4h.037v4.462H9.051ZM12.3-23.22a1.044,1.044,0,0,1,1.072,1.09H11.2A1.1,1.1,0,0,1,12.3-23.22Zm1.09,2.593A1.015,1.015,0,0,1,12.363-20a1.134,1.134,0,0,1-1.177-1.219V-21.3h3.482v-.412a2.28,2.28,0,0,0-2.378-2.506,2.366,2.366,0,0,0-2.423,2.63A2.342,2.342,0,0,0,12.34-19a2.1,2.1,0,0,0,2.286-1.626Zm3.871,1.6a1.65,1.65,0,0,0,1.571-.921h.023v.861h1.319v-6.927H18.841v2.744h-.027a1.62,1.62,0,0,0-1.544-.921c-1.255,0-2.071.994-2.071,2.575S16.01-19.029,17.265-19.029Zm.444-4.082c.692,0,1.141.591,1.141,1.5s-.449,1.5-1.141,1.5-1.141-.577-1.141-1.5S17.013-23.11,17.709-23.11Zm3.422,4.022h1.338v-5.044H21.132Zm.669-5.594a.706.706,0,0,0,.724-.7.7.7,0,0,0-.724-.7.7.7,0,0,0-.719.7A.705.705,0,0,0,21.8-24.682Zm6.157,2.41a2.088,2.088,0,0,0-2.286-1.947,2.367,2.367,0,0,0-2.46,2.607A2.362,2.362,0,0,0,25.681-19a2.059,2.059,0,0,0,2.281-1.92H26.716a.951.951,0,0,1-1.022.861c-.692,0-1.127-.568-1.127-1.553,0-.967.435-1.553,1.122-1.553a.98.98,0,0,1,1.022.893Zm.7,3.184h1.338v-5.044H28.654Zm.669-5.594a.706.706,0,0,0,.724-.7.7.7,0,0,0-.724-.7.7.7,0,0,0-.719.7A.705.705,0,0,0,29.323-24.682Zm1.6,5.594H32.26v-2.877a1.01,1.01,0,0,1,1.026-1.127c.632,0,.944.38.944,1.049v2.955h1.338v-3.234a1.662,1.662,0,0,0-1.75-1.883,1.585,1.585,0,0,0-1.576.976h-.027v-.9H30.922ZM38.7-23.22a1.044,1.044,0,0,1,1.072,1.09H37.6A1.1,1.1,0,0,1,38.7-23.22Zm1.09,2.593A1.015,1.015,0,0,1,38.76-20a1.134,1.134,0,0,1-1.177-1.219V-21.3h3.482v-.412a2.28,2.28,0,0,0-2.378-2.506,2.366,2.366,0,0,0-2.423,2.63A2.342,2.342,0,0,0,38.737-19a2.1,2.1,0,0,0,2.286-1.626Z" transform="translate(18.428 64.067)" fill="#00b1c4"/>
</svg>
