<svg xmlns="http://www.w3.org/2000/svg" width="52.573" height="55.05" viewBox="0 0 52.573 55.05">
  <g id="Group_67089" data-name="Group 67089" transform="translate(0 0)">
    <g id="_001-package" data-name="001-package" transform="translate(11.905 0)">
      <path id="Path_21243" data-name="Path 21243" d="M25.112,153.929l-10.721-3.554L3.671,153.929.01,159.743l3.37,1.117v6.18l11.011,3.65L25.4,167.04v-6.18l3.37-1.117Zm-3.23.7-7.49,2.483L6.9,154.633l7.49-2.483Zm-19.3,4.187,2-3.179,8.521,2.824-2,3.179Zm2.483,2.6,6.761,2.241,1.722-2.736v7.711l-8.483-2.812Zm10.168,7.216v-7.711l1.722,2.736,6.761-2.241v4.4Zm2.445-6.991-2-3.179,8.521-2.824,2,3.179Z" transform="translate(-0.01 -141.927)" fill="#00b1c4"/>
      <path id="Path_21244" data-name="Path 21244" d="M241,0h1.685V5.628H241Z" transform="translate(-227.457)" fill="#00b1c4"/>
      <path id="Path_21245" data-name="Path 21245" d="M0,0H1.685V5.628H0Z" transform="matrix(0.866, -0.5, 0.5, 0.866, 5.613, 2.575)" fill="#00b1c4"/>
      <path id="Path_21246" data-name="Path 21246" d="M0,0H5.628V1.685H0Z" transform="matrix(0.5, -0.866, 0.866, 0.5, 18.876, 6.607)" fill="#00b1c4"/>
    </g>
    <g id="support-money-financial-capital_money-hands" data-name="support-money-financial-capital money-hands" transform="translate(0 2.477)">
      <path id="Path_21261" data-name="Path 21261" d="M55.9,6a3.5,3.5,0,0,0-3.5,3.5V25.592a3.387,3.387,0,0,0-1.7.018,3.493,3.493,0,0,0-2.129,1.63l-5.222,9.051a4.389,4.389,0,0,0-.587,2.191V49.811h-.876a.876.876,0,0,0-.876.876v3.5a.876.876,0,0,0,.876.876H55.9a.876.876,0,0,0,.876-.876v-3.5a.876.876,0,0,0-.876-.876h-.876V46.577a2.654,2.654,0,0,1,.631-1.709l2.7-3.146A4.4,4.4,0,0,0,59.4,38.875V9.5A3.5,3.5,0,0,0,55.9,6Zm-.876,47.315H42.752V51.563H55.019Zm2.629-14.44a2.637,2.637,0,0,1-.631,1.709l-2.7,3.146a4.414,4.414,0,0,0-1.051,2.848v3.233H44.5V38.481a2.683,2.683,0,0,1,.35-1.314l5.231-9.051a1.751,1.751,0,1,1,3.032,1.752l-5.7,9.866,1.516.876,5.7-9.866a3.5,3.5,0,0,0-.491-4.136V9.5a1.752,1.752,0,1,1,3.5,0Z" transform="translate(-6.828 -2.495)" fill="#00b1c4"/>
      <path id="Path_21262" data-name="Path 21262" d="M19.524,49.811h-.876V38.481a4.389,4.389,0,0,0-.587-2.191l-5.222-9.051A3.476,3.476,0,0,0,9.01,25.592V9.5A3.5,3.5,0,1,0,2,9.5V38.875a4.4,4.4,0,0,0,1.051,2.848l2.7,3.146a2.654,2.654,0,0,1,.631,1.709v3.233H5.5a.876.876,0,0,0-.876.876v3.5a.876.876,0,0,0,.876.876H19.524a.876.876,0,0,0,.876-.876v-3.5A.876.876,0,0,0,19.524,49.811ZM4.383,40.584a2.637,2.637,0,0,1-.631-1.709V9.5a1.752,1.752,0,1,1,3.5,0v17.1a3.5,3.5,0,0,0-.491,4.136l5.7,9.866,1.516-.876-5.7-9.866a1.751,1.751,0,0,1,3.032-1.752l5.231,9.051a2.683,2.683,0,0,1,.35,1.314V49.811H8.133V46.577A4.413,4.413,0,0,0,7.082,43.73ZM18.648,53.315H6.381V51.563H18.648Z" transform="translate(-2 -2.495)" fill="#00b1c4"/>
      <path id="Path_21265" data-name="Path 21265" d="M11,4h1.752V5.752H11Z" transform="translate(-3.114 -2.248)" fill="#00b1c4"/>
      <path id="Path_21266" data-name="Path 21266" d="M13,2h1.752V3.752H13Z" transform="translate(-3.362 -2)" fill="#00b1c4"/>
      <path id="Path_21267" data-name="Path 21267" d="M15,4h1.752V5.752H15Z" transform="translate(-3.609 -2.248)" fill="#00b1c4"/>
      <path id="Path_21268" data-name="Path 21268" d="M13,6h1.752V7.752H13Z" transform="translate(-3.362 -2.495)" fill="#00b1c4"/>
      <path id="Path_21269" data-name="Path 21269" d="M51,4h1.752V5.752H51Z" transform="translate(-8.066 -2.248)" fill="#00b1c4"/>
      <path id="Path_21270" data-name="Path 21270" d="M49,2h1.752V3.752H49Z" transform="translate(-7.818 -2)" fill="#00b1c4"/>
      <path id="Path_21271" data-name="Path 21271" d="M47,4h1.752V5.752H47Z" transform="translate(-7.571 -2.248)" fill="#00b1c4"/>
      <path id="Path_21272" data-name="Path 21272" d="M49,6h1.752V7.752H49Z" transform="translate(-7.818 -2.495)" fill="#00b1c4"/>
    </g>
  </g>
</svg>
