<svg xmlns="http://www.w3.org/2000/svg" width="184.012" height="192.021" viewBox="0 0 184.012 192.021">
  <g id="Group_67327" data-name="Group 67327" transform="translate(317 -6713)">
    <g id="_09-reliability" data-name="09-reliability" transform="translate(-325 6713)">
      <path id="Path_21361" data-name="Path 21361" d="M151.979,96.676c.007-.226.021-.453.021-.676V24a8,8,0,0,0-8-8C121.835,16,83.356.726,82.97.572a8.006,8.006,0,0,0-5.941,0C76.644.727,38.2,16,16,16a8,8,0,0,0-8,8V96c0,12.656,11.434,28.1,34.955,47.209A364.9,364.9,0,0,0,75.76,166.784a8.226,8.226,0,0,0,8.48,0c.327-.2,5.9-3.7,13.729-9.2a48,48,0,1,0,54.01-60.9ZM96.25,139.089c-6.593,4.886-12.493,8.9-16.25,11.379-5.708-3.773-16.371-11.077-26.955-19.677C26.1,108.894,24,98.625,24,96V31.551C44.9,29.377,71.2,19.92,80,16.579c8.8,3.341,35.1,12.8,56,14.972V96a6.849,6.849,0,0,1-.055.689,48.1,48.1,0,0,0-39.7,42.4ZM144,176a32,32,0,1,1,32-32A32,32,0,0,1,144,176Z" fill="#21aab5"/>
      <path id="Path_21362" data-name="Path 21362" d="M141.261,141.686l-9.683-4.841-7.156,14.31,16,8a8.246,8.246,0,0,0,10.234-2.717l16-24-13.312-8.875Z" fill="#21aab5"/>
    </g>
    <path id="Path_21363" data-name="Path 21363" d="M9.324-75.591q8.325,0,13.487,5.272t5.161,14.93v4.107h3.885v13.32H27.972L28.083-19.2a6.216,6.216,0,0,0,2.276,5.217,9.191,9.191,0,0,0,5.827,1.776q6.66,0,10.212-4.717A18.914,18.914,0,0,0,49.95-28.638q0-9.435-8.325-9.435a23.731,23.731,0,0,0-4.662.444V-51.171a31.651,31.651,0,0,1,6.993-.777q10.656,0,16.1,6.382T65.49-28.638a30.2,30.2,0,0,1-7.881,21.09Q49.728,1.11,36.186,1.11A26.373,26.373,0,0,1,19.425-4.274Q12.543-9.657,12.543-19.2V-37.962H3.774v-13.32h8.769V-52.5q0-8.658-7.326-8.658-3.108,0-4.107.111V-74.814A49.255,49.255,0,0,1,9.324-75.591Z" transform="translate(-279 6827)" fill="#21aab5"/>
  </g>
</svg>
