<svg xmlns="http://www.w3.org/2000/svg" width="79.469" height="79.485" viewBox="0 0 79.469 79.485">
  <g id="Group_67088" data-name="Group 67088" transform="translate(0 0)">
    <g id="_003-genuine" data-name="003-genuine" transform="translate(0 0)">
      <g id="Group_67081" data-name="Group 67081" transform="translate(0)">
        <path id="Path_21249" data-name="Path 21249" d="M1.6,28.876H77.977a1.552,1.552,0,0,0,0-3.1h-2.61c.084-2.243.125-4.591.125-7.141a1.553,1.553,0,0,0-1.552-1.552A15.542,15.542,0,0,1,58.416,1.552,1.553,1.553,0,0,0,56.863,0H22.71a1.553,1.553,0,0,0-1.552,1.552A15.542,15.542,0,0,1,5.633,17.077,1.553,1.553,0,0,0,4.08,18.629c0,2.555.041,4.9.125,7.141H1.6a1.552,1.552,0,0,0,0,3.1ZM7.19,20.117A18.66,18.66,0,0,0,24.2,3.1H55.375A18.66,18.66,0,0,0,72.383,20.117c-.013,1.989-.054,3.856-.123,5.653h-3.1c.022-.575.041-1.159.057-1.746a1.552,1.552,0,0,0-1.134-1.537A21.834,21.834,0,0,1,52.987,7.349a1.553,1.553,0,0,0-1.5-1.139H46.772a1.552,1.552,0,0,0,0,3.1h3.567a24.982,24.982,0,0,0,15.737,15.8q-.011.327-.024.651H13.521q-.013-.324-.024-.651a24.981,24.981,0,0,0,15.737-15.8H32.8a1.552,1.552,0,0,0,0-3.1H28.082a1.553,1.553,0,0,0-1.5,1.139A21.833,21.833,0,0,1,11.491,22.488a1.553,1.553,0,0,0-1.134,1.537c.016.587.035,1.171.057,1.746h-3.1c-.069-1.794-.109-3.662-.122-5.654Z" transform="translate(-0.052 0)" fill="#00b1c4"/>
        <path id="Path_21250" data-name="Path 21250" d="M77.977,326H1.6a1.552,1.552,0,0,0,0,3.1H9.265c5.373,13.313,15.232,21.729,30.12,25.718a1.554,1.554,0,0,0,.8,0c14.889-3.99,24.747-12.4,30.121-25.718h7.668A1.552,1.552,0,0,0,77.977,326Zm-17.913,3.1c-.415.792-.851,1.555-1.306,2.28-4.161,6.64-10.369,11.177-18.972,13.859-8.6-2.682-14.811-7.218-18.972-13.859-.455-.726-.891-1.488-1.306-2.28Zm-20.277,22.61c-13.216-3.641-22.119-11.049-27.155-22.61h3.409a38.224,38.224,0,0,0,2.143,3.929c4.649,7.42,11.569,12.431,21.155,15.32a1.552,1.552,0,0,0,.9,0c9.586-2.889,16.506-7.9,21.155-15.32a38.24,38.24,0,0,0,2.142-3.929h3.41C61.906,340.665,53,348.073,39.786,351.714Z" transform="translate(-0.052 -275.39)" fill="#00b1c4"/>
        <path id="Path_21251" data-name="Path 21251" d="M23.961,208.117a.989.989,0,0,1,.988.988.988.988,0,0,0,1.977,0,2.965,2.965,0,0,0-5.93,0v3.954a2.965,2.965,0,0,0,5.93,0v-.988a.988.988,0,0,0-.988-.988H24.95a.988.988,0,0,0,0,1.977.988.988,0,0,1-1.977,0v-3.954A.989.989,0,0,1,23.961,208.117Z" transform="translate(-18.978 -175.867)" fill="#00b1c4"/>
        <path id="Path_21252" data-name="Path 21252" d="M100.446,207.977a.988.988,0,0,0,0-1.977H96.986a.988.988,0,0,0-.988.988V214.9a.988.988,0,0,0,.988.988h3.459a.988.988,0,0,0,0-1.977H97.975V211.93h1.087a.988.988,0,0,0,0-1.977H97.975v-1.977Z" transform="translate(-81.871 -175.727)" fill="#00b1c4"/>
        <path id="Path_21253" data-name="Path 21253" d="M170.447,206.987v4.134l-2.6-4.619a.988.988,0,0,0-1.85.485v7.907a.988.988,0,0,0,1.977,0V210.76l2.6,4.619a.988.988,0,0,0,1.85-.485v-7.907A.988.988,0,0,0,170.447,206.987Z" transform="translate(-140.228 -175.726)" fill="#00b1c4"/>
        <path id="Path_21254" data-name="Path 21254" d="M246.988,206a.988.988,0,0,0-.988.988v5.93a2.965,2.965,0,0,0,5.93,0v-5.93a.988.988,0,0,0-1.977,0v5.93a.988.988,0,0,1-1.977,0v-5.93A.988.988,0,0,0,246.988,206Z" transform="translate(-207.655 -175.727)" fill="#00b1c4"/>
        <path id="Path_21255" data-name="Path 21255" d="M321,207.036v7.907a.988.988,0,0,0,1.977,0v-7.907A.988.988,0,0,0,321,207.036Z" transform="translate(-270.546 -175.775)" fill="#00b1c4"/>
        <path id="Path_21256" data-name="Path 21256" d="M360.451,206.987v4.134l-2.6-4.619a.988.988,0,0,0-1.85.485v7.907a.988.988,0,0,0,1.977,0V210.76l2.6,4.619a.988.988,0,0,0,1.85-.485v-7.907A.988.988,0,0,0,360.451,206.987Z" transform="translate(-297.321 -175.726)" fill="#00b1c4"/>
        <path id="Path_21257" data-name="Path 21257" d="M440.452,207.977a.988.988,0,0,0,0-1.977h-3.459a.988.988,0,0,0-.988.988V214.9a.988.988,0,0,0,.988.988h3.459a.988.988,0,0,0,0-1.977h-2.471V211.93h1.087a.988.988,0,0,0,0-1.977h-1.087v-1.977Z" transform="translate(-364.747 -175.727)" fill="#00b1c4"/>
        <path id="Path_21258" data-name="Path 21258" d="M247.595,43.1a1.552,1.552,0,0,0,0-3.1h0A1.552,1.552,0,0,0,247.595,43.1Z" transform="translate(-207.86 -33.79)" fill="#00b1c4"/>
      </g>
    </g>
    <path id="Path_21274" data-name="Path 21274" d="M9.727-25.662H7.969l-2.06,5.139h-.04l-2.06-5.139H2.051v7.249H3.4v-4.893h.04l1.969,4.823h.954l1.969-4.823h.04v4.893H9.727Zm3.567,2.718a1.145,1.145,0,0,1,1.176,1.2H12.083A1.2,1.2,0,0,1,13.294-22.944Zm1.2,2.843a1.112,1.112,0,0,1-1.13.688,1.244,1.244,0,0,1-1.291-1.336v-.09h3.818v-.452a2.5,2.5,0,0,0-2.607-2.748,2.6,2.6,0,0,0-2.658,2.884,2.569,2.569,0,0,0,2.713,2.838A2.305,2.305,0,0,0,15.841-20.1Zm4.245,1.753a1.809,1.809,0,0,0,1.723-1.01h.025v.944h1.447v-7.6H20.462V-23h-.03a1.777,1.777,0,0,0-1.693-1.01c-1.376,0-2.271,1.09-2.271,2.823S17.358-18.348,18.734-18.348Zm.487-4.476c.759,0,1.251.648,1.251,1.648s-.492,1.643-1.251,1.643-1.251-.633-1.251-1.648S18.458-22.824,19.222-22.824Zm3.753,4.411h1.467v-5.531H22.974Zm.733-6.134a.774.774,0,0,0,.794-.769.77.77,0,0,0-.794-.764.769.769,0,0,0-.789.764A.773.773,0,0,0,23.708-24.547ZM30.46-21.9a2.29,2.29,0,0,0-2.507-2.135,2.6,2.6,0,0,0-2.7,2.858,2.59,2.59,0,0,0,2.708,2.863,2.258,2.258,0,0,0,2.5-2.1H29.1a1.043,1.043,0,0,1-1.12.944c-.759,0-1.236-.623-1.236-1.7,0-1.06.477-1.7,1.231-1.7a1.074,1.074,0,0,1,1.12.98Zm.764,3.491H32.69v-5.531H31.223Zm.733-6.134a.774.774,0,0,0,.794-.769.77.77,0,0,0-.794-.764.769.769,0,0,0-.789.764A.773.773,0,0,0,31.957-24.547Zm1.753,6.134h1.467v-3.155A1.108,1.108,0,0,1,36.3-22.8c.693,0,1.035.417,1.035,1.15v3.24H38.8V-21.96a1.823,1.823,0,0,0-1.919-2.065,1.738,1.738,0,0,0-1.728,1.07h-.03v-.99H33.71Zm8.53-4.531a1.145,1.145,0,0,1,1.176,1.2H41.029A1.2,1.2,0,0,1,42.24-22.944Zm1.2,2.843a1.112,1.112,0,0,1-1.13.688,1.244,1.244,0,0,1-1.291-1.336v-.09h3.818v-.452a2.5,2.5,0,0,0-2.607-2.748,2.6,2.6,0,0,0-2.658,2.884,2.569,2.569,0,0,0,2.713,2.838A2.305,2.305,0,0,0,44.787-20.1Z" transform="translate(17.673 67.736)" fill="#00b1c4"/>
  </g>
</svg>
