<svg
    xmlns="http://www.w3.org/2000/svg"
    viewBox="0 0 256 256"
    id="vector">
    <path
        id="path"
        d="M 250.293 93.007 L 226.023 180.81 C 224.825 185.144 220.881 188.146 216.384 188.146 L 99.518 188.146 L 41.374 80.343 L 240.654 80.343 C 247.262 80.343 252.053 86.638 250.293 93.007 Z"
        fill="#44c7b6"/>
    <path
        id="path_1"
        d="M 198.044 212.217 M 184.838 212.217 C 184.838 208.716 186.23 205.355 188.706 202.879 C 191.182 200.403 194.543 199.011 198.044 199.011 C 201.545 199.011 204.906 200.403 207.382 202.879 C 209.858 205.355 211.25 208.716 211.25 212.217 C 211.25 215.718 209.858 219.079 207.382 221.555 C 204.906 224.031 201.545 225.423 198.044 225.423 C 194.543 225.423 191.182 224.031 188.706 221.555 C 186.23 219.079 184.838 215.718 184.838 212.217"
        fill="#87828e"/>
    <path
        id="path_2"
        d="M 143.744 212.217 M 130.538 212.217 C 130.538 208.716 131.93 205.355 134.406 202.879 C 136.882 200.403 140.243 199.011 143.744 199.011 C 147.245 199.011 150.606 200.403 153.082 202.879 C 155.558 205.355 156.95 208.716 156.95 212.217 C 156.95 215.718 155.558 219.079 153.082 221.555 C 150.606 224.031 147.245 225.423 143.744 225.423 C 140.243 225.423 136.882 224.031 134.406 221.555 C 131.93 219.079 130.538 215.718 130.538 212.217"
        fill="#87828e"/>
    <path
        id="path_3"
        d="M 151.247 223.08 C 149.127 224.56 146.537 225.42 143.747 225.42 C 136.447 225.42 130.537 219.51 130.537 212.22 C 130.537 204.92 136.447 199.01 143.747 199.01 C 146.537 199.01 149.127 199.87 151.247 201.35 C 147.797 203.72 145.537 207.71 145.537 212.22 C 145.537 216.73 147.797 220.71 151.247 223.08 Z"
        fill="#a4a4a5"/>
    <path
        id="path_4"
        d="M 205.548 223.085 C 203.428 224.565 200.838 225.425 198.048 225.425 C 190.748 225.425 184.838 219.515 184.838 212.225 C 184.838 204.925 190.748 199.015 198.048 199.015 C 200.838 199.015 203.428 199.875 205.548 201.355 C 202.098 203.725 199.838 207.715 199.838 212.225 C 199.839 216.735 202.099 220.715 205.548 223.085 Z"
        fill="#a4a4a5"/>
    <path
        id="path_5"
        d="M 136.997 70.835 M 96.738 70.835 C 96.711 62.317 99.388 54.006 104.382 47.106 C 109.375 40.205 116.433 35.064 124.532 32.427 C 132.631 29.789 141.363 29.789 149.462 32.427 C 157.561 35.064 164.619 40.205 169.612 47.106 C 174.606 54.006 177.283 62.317 177.256 70.835 C 177.283 79.353 174.606 87.664 169.612 94.564 C 164.619 101.465 157.561 106.606 149.462 109.243 C 141.363 111.881 132.631 111.881 124.532 109.243 C 116.433 106.606 109.375 101.465 104.382 94.564 C 99.388 87.664 96.711 79.353 96.738 70.835"
        fill="#ffe2e2"/>
    <path
        id="path_6"
        d="M 177.257 70.83 C 177.257 93.07 159.227 111.09 136.997 111.09 C 134.437 111.09 131.927 110.85 129.497 110.39 C 148.147 106.88 162.257 90.51 162.257 70.83 C 162.257 51.16 148.147 34.79 129.497 31.28 C 131.927 30.82 134.437 30.58 136.997 30.58 C 159.227 30.58 177.257 48.6 177.257 70.83 Z"
        fill="#ffcfcf"/>
    <path
        id="path_7"
        d="M 144.497 110.39 C 142.067 110.85 139.557 111.09 136.997 111.09 C 114.767 111.09 96.737 93.07 96.737 70.83 C 96.737 48.6 114.767 30.58 136.997 30.58 C 139.557 30.58 142.067 30.82 144.497 31.28 C 125.847 34.79 111.737 51.16 111.737 70.83 C 111.737 90.51 125.847 106.88 144.497 110.39 Z"
        fill="#ffefee"/>
    <path
        id="path_8"
        d="M 160.827 85.7 C 160.827 87.63 160.097 89.57 158.617 91.04 L 157.197 92.45 C 154.247 95.41 149.467 95.41 146.517 92.45 L 145.827 91.76 L 137.317 83.26 C 137.137 83.08 136.847 83.08 136.667 83.26 L 127.757 92.17 C 126.037 93.89 123.667 94.88 121.257 94.62 C 118.307 94.31 116.777 92.44 115.377 91.04 C 112.427 88.09 112.427 83.3 115.377 80.35 L 124.567 71.16 C 124.747 70.98 124.747 70.69 124.567 70.51 L 115.687 61.63 C 112.567 58.51 112.567 53.44 115.687 50.32 L 116.787 49.22 C 119.747 46.26 124.527 46.26 127.477 49.22 L 136.667 58.41 C 136.847 58.59 137.137 58.59 137.317 58.41 L 146.197 49.53 C 149.327 46.41 154.387 46.41 157.517 49.53 L 158.297 50.31 C 161.427 53.44 161.427 58.5 158.297 61.63 L 149.417 70.51 C 149.237 70.69 149.237 70.98 149.417 71.16 L 158.617 80.35 C 160.097 81.83 160.827 83.77 160.827 85.7 Z"
        fill="#ff4a73"/>
    <path
        id="path_9"
        d="M 116.517 188.15 L 99.517 188.15 L 41.377 80.34 L 58.377 80.34 Z"
        fill="#4bdbc3"/>
    <path
        id="path_10"
        d="M 250.297 93.01 L 226.027 180.81 C 224.827 185.14 220.877 188.15 216.387 188.15 L 199.387 188.15 C 203.877 188.15 207.827 185.14 209.027 180.81 L 233.297 93.01 C 235.057 86.64 230.257 80.34 223.657 80.34 L 240.657 80.34 C 247.257 80.34 252.057 86.64 250.297 93.01 Z"
        fill="#3bb2a0"/>
    <path
        id="path_11"
        d="M 127.997 49.74 L 127.997 91.93 L 127.757 92.17 C 126.037 93.89 123.667 94.88 121.257 94.62 C 118.307 94.31 116.777 92.44 115.377 91.04 C 112.427 88.09 112.427 83.3 115.377 80.35 L 124.567 71.16 C 124.747 70.98 124.747 70.69 124.567 70.51 L 115.687 61.63 C 112.567 58.51 112.567 53.44 115.687 50.32 L 116.787 49.22 C 119.747 46.26 124.527 46.26 127.477 49.22 Z"
        fill="#f973a3"/>
    <path
        id="path_12"
        d="M 160.827 85.7 C 160.827 87.63 160.097 89.57 158.617 91.04 L 157.197 92.45 C 154.247 95.41 149.467 95.41 146.517 92.45 L 145.827 91.76 L 145.827 49.9 L 146.197 49.53 C 149.327 46.41 154.387 46.41 157.517 49.53 L 158.297 50.31 C 161.427 53.44 161.427 58.5 158.297 61.63 L 149.417 70.51 C 149.237 70.69 149.237 70.98 149.417 71.16 L 158.617 80.35 C 160.097 81.83 160.827 83.77 160.827 85.7 Z"
        fill="#ea2a6a"/>
    <path
        id="path_13"
        d="M 240.657 76.34 L 180.907 76.34 C 184.253 50.013 163.597 26.58 136.997 26.58 C 110.362 26.58 89.746 50.049 93.087 76.34 L 43.747 76.34 C 29.037 49.044 52.204 91.968 32.126 54.776 C 31.42 53.469 30.023 52.676 28.606 52.676 L 10.335 52.676 C 5.373 52.676 1.335 56.714 1.335 61.676 L 1.335 67.694 C 1.335 72.656 5.373 76.694 10.335 76.694 L 17.248 76.694 C 22.533 76.694 22.54 68.694 17.248 68.694 L 10.335 68.694 C 9.784 68.694 9.335 68.245 9.335 67.694 L 9.335 61.676 C 9.335 61.125 9.784 60.676 10.335 60.676 L 26.206 60.676 L 26.208 60.68 L 26.218 60.68 C 45.07 95.598 72.085 145.709 105.398 207.48 C 108.288 212.87 113.898 216.22 120.028 216.22 L 127.008 216.22 C 128.818 223.78 135.638 229.42 143.748 229.42 C 151.848 229.42 158.668 223.78 160.478 216.22 L 181.308 216.22 C 183.118 223.78 189.938 229.42 198.048 229.42 C 206.148 229.42 212.968 223.78 214.778 216.22 L 229.948 216.22 C 235.233 216.22 235.241 208.22 229.948 208.22 L 214.778 208.22 C 212.968 200.65 206.158 195.01 198.048 195.01 C 189.938 195.01 183.118 200.65 181.308 208.22 L 160.478 208.22 C 158.668 200.65 151.858 195.01 143.748 195.01 C 135.638 195.01 128.818 200.65 127.008 208.22 L 120.028 208.22 C 116.848 208.22 113.948 206.49 112.448 203.69 L 106.218 192.15 L 216.388 192.15 C 222.658 192.15 228.208 187.92 229.878 181.88 C 231.736 175.164 252.784 98.996 254.148 94.07 C 256.628 85.135 249.89 76.34 240.657 76.34 Z M 134.537 212.22 C 134.537 207.193 138.626 203.01 143.747 203.01 C 148.808 203.01 152.947 207.125 152.947 212.22 C 152.947 217.242 148.866 221.42 143.747 221.42 C 138.64 221.42 134.537 217.262 134.537 212.22 Z M 188.837 212.22 C 188.837 207.193 192.926 203.01 198.047 203.01 C 203.106 203.01 207.247 207.122 207.247 212.22 C 207.247 217.243 203.166 221.42 198.047 221.42 C 192.94 221.42 188.837 217.262 188.837 212.22 Z M 240.657 84.34 C 244.623 84.34 247.494 88.134 246.437 91.94 L 244.787 97.91 L 231.167 97.91 L 223.847 84.34 Z M 90.267 162.58 L 82.957 149.02 L 109.357 149.02 L 116.667 162.58 L 90.277 162.58 Z M 106.817 127.47 L 132.687 127.47 L 139.997 141.02 L 114.127 141.02 Z M 67.017 119.47 L 59.707 105.91 L 86.097 105.91 L 93.417 119.47 L 67.027 119.47 Z M 95.187 105.91 L 110.037 105.91 C 114.487 109.33 119.597 111.93 125.137 113.48 L 125.147 113.48 L 128.377 119.47 L 102.507 119.47 Z M 136.997 34.58 C 159.157 34.58 176.245 54.431 172.837 76.34 C 172.417 79.12 171.667 81.8 170.637 84.34 C 165.281 97.705 152.324 107.09 136.997 107.09 C 118.648 107.09 103.744 93.462 101.157 76.34 C 97.751 54.441 114.825 34.58 136.997 34.58 Z M 179.447 84.34 L 186.767 97.91 L 171.987 97.91 C 175.107 93.88 177.557 89.3 179.147 84.34 Z M 233.707 119.47 L 207.487 119.47 L 200.177 105.91 L 226.397 105.91 Z M 210.027 141.02 L 184.067 141.02 L 176.757 127.47 L 202.717 127.47 Z M 141.777 127.47 L 167.667 127.47 L 174.977 141.02 L 149.087 141.02 Z M 135.077 115.05 C 142.829 115.419 150.907 113.645 158.097 109.73 L 163.347 119.47 L 137.457 119.47 Z M 198.397 119.47 L 172.437 119.47 L 165.127 105.91 L 191.087 105.91 Z M 118.447 149.02 L 144.307 149.02 L 151.627 162.58 L 125.757 162.58 Z M 153.397 149.02 L 179.287 149.02 L 186.607 162.58 L 160.707 162.58 Z M 188.377 149.02 L 214.347 149.02 L 221.657 162.58 L 195.697 162.58 Z M 228.217 157.88 L 223.437 149.02 L 230.657 149.02 Z M 219.117 141.02 L 211.807 127.47 L 236.617 127.47 L 232.867 141.02 Z M 240.177 114.6 L 235.487 105.91 L 242.577 105.91 Z M 214.757 84.34 L 222.077 97.91 L 195.857 97.91 L 188.537 84.34 Z M 94.847 84.34 C 96.437 89.3 98.887 93.88 102.007 97.91 L 90.877 97.91 L 83.557 84.34 Z M 74.467 84.34 L 81.787 97.91 L 55.397 97.91 L 48.077 84.34 Z M 97.727 127.47 L 105.037 141.02 L 78.647 141.02 L 71.337 127.47 Z M 101.907 184.15 L 94.587 170.58 L 120.987 170.58 L 128.307 184.15 Z M 137.397 184.15 L 130.077 170.58 L 155.937 170.58 L 163.257 184.15 Z M 172.347 184.15 L 165.027 170.58 L 190.927 170.58 L 198.247 184.15 Z M 222.167 179.75 C 221.447 182.34 219.077 184.15 216.387 184.15 L 207.337 184.15 L 200.017 170.58 L 224.697 170.58 Z"
        fill="#5f266d"/>
    <path
        id="path_14"
        d="M 130.587 95 L 136.997 88.59 L 143.687 95.28 C 154.544 106.137 172.407 88.491 161.447 77.53 C 159.605 75.688 160.582 76.665 154.747 70.83 L 161.127 64.46 C 172.506 53.081 154.541 35.512 143.377 46.7 L 136.997 53.08 L 130.307 46.39 C 119.196 35.279 101.722 53.315 112.867 64.46 L 119.237 70.83 C 113.001 77.077 114.073 76.004 112.547 77.53 C 101.843 88.234 118.861 106.637 130.587 95 Z M 127.397 67.68 C 120.688 60.971 118.449 58.973 117.708 57.648 C 115.79 54.22 121.391 48.808 124.647 52.04 L 133.837 61.23 C 135.56 62.973 138.406 62.981 140.147 61.24 L 149.027 52.36 C 152.627 48.76 158.347 54.306 156.183 57.813 C 155.339 59.181 152.996 61.271 146.587 67.68 C 144.857 69.42 144.857 72.25 146.597 73.99 C 150.093 77.486 151.855 79.248 155.787 83.18 C 159.254 86.753 152.779 93.061 149.347 89.63 C 149.347 89.63 149.347 89.63 149.347 89.62 C 147.482 87.755 142.012 82.295 140.147 80.43 C 138.392 78.675 135.549 78.718 133.837 80.43 C 125.988 88.278 124.442 90.229 122.856 90.588 C 120.03 91.227 116.252 87.171 117.437 84.34 C 117.437 84.34 123.753 77.633 127.397 73.99 C 129.137 72.25 129.137 69.42 127.397 67.68 Z"
        fill="#5f266d"/>
</svg>
