<svg xmlns="http://www.w3.org/2000/svg" width="393.411" height="93.442" viewBox="0 0 393.411 93.442"><g transform="translate(-22.54 -36.6)"><g transform="translate(22.54 36.6)"><path d="M161.171,104.428a54.245,54.245,0,0,1-8.244,15.745,114.062,114.062,0,0,1-19.166,20.2c-4.328,3.668-8.738,7.254-13.066,10.84-.165.124-.289.289-.495.289v-4.616a.769.769,0,0,0,.412-.206c4.122-3.627,8.408-7.089,12.407-10.882,9.4-8.986,16.446-19.5,20.238-32.068a41.413,41.413,0,0,0,1.36-6.348,12.9,12.9,0,0,0-2.968-9.975c-3.751-4.74-8.738-7.131-15.416-7.419-1.072.206-2.762.495-4.41.866a2.522,2.522,0,0,1-3.133-1.2,2.583,2.583,0,0,1,.989-3.339,20.032,20.032,0,0,1,12.9-3.05A22.266,22.266,0,0,1,162,90.991,25.634,25.634,0,0,1,161.171,104.428Z" transform="translate(-79.946 -58.099)" fill="#950063"/><path d="M62.793,147.024v4.616a.575.575,0,0,1-.371-.165c-5.441-4.575-11.005-9.027-16.322-13.767a85.314,85.314,0,0,1-17.147-20.692,47.334,47.334,0,0,1-5.894-15.292c-1.2-6.719-.453-13.107,3.545-18.8a21.211,21.211,0,0,1,19.249-9.563A18.839,18.839,0,0,1,55.415,76.5a2.47,2.47,0,0,1,1.2,2.514,2.374,2.374,0,0,1-3.3,1.978C45.07,78.314,36,82.765,32.292,89.566a14.841,14.841,0,0,0-1.608,9.645c2.02,13.355,8,24.731,17.106,34.582a137.4,137.4,0,0,0,10.593,9.6c1.278,1.113,2.6,2.226,3.875,3.38A.886.886,0,0,0,62.793,147.024Z" transform="translate(-22.54 -58.199)" fill="#950063"/><path d="M142.365,120.753a17.33,17.33,0,0,0,6.018,6.43c.989.659,2.061,1.278,3.05,1.937a2.335,2.335,0,0,1,.618.495c.165.206.371.536.289.742-.041.206-.412.371-.66.412a7.648,7.648,0,0,1-4.081-.659,14.352,14.352,0,0,1-6.8-5.482,12.171,12.171,0,0,0-1.319-1.649,2.284,2.284,0,0,0-2.432-.742,2.042,2.042,0,0,0-1.36,1.978c-.206,2.72-.412,5.441-.453,8.161-.041,1.772.206,3.545.33,5.441,0,0,.289,2.968-1.2.536-.577-1.4-1.237-2.679-1.69-4.081a22.979,22.979,0,0,1-.659-9.48,115.713,115.713,0,0,0,.742-16.9c-.165-3.833-.206-7.708-.206-11.582a40.615,40.615,0,0,1,.412-4.452,5.134,5.134,0,0,1,.165-.659,3.136,3.136,0,0,1,1.237,2.556c.165,1.978.206,4,.495,5.977a22.344,22.344,0,0,0,1.154,4.9c1.649,4.081,5.029,5.688,9.233,4.452a29.22,29.22,0,0,0,5.152-2.061,15.152,15.152,0,0,1,9.686-1.36,7.1,7.1,0,0,1,.866.289.309.309,0,0,0,.041.206,9.71,9.71,0,0,1-1.443.453c-5.317.742-10.057,3.091-14.674,5.647C141.623,114.076,140.675,117.374,142.365,120.753Z" transform="translate(-86.778 -68.695)" fill="#950063"/><path d="M61.531,120.253a17.33,17.33,0,0,1-6.018,6.43c-.989.659-2.061,1.278-3.05,1.937a2.335,2.335,0,0,0-.618.495c-.165.206-.371.536-.289.742.041.206.412.371.659.412a7.648,7.648,0,0,0,4.081-.659,14.352,14.352,0,0,0,6.8-5.482,12.169,12.169,0,0,1,1.319-1.649,2.284,2.284,0,0,1,2.432-.742,2.042,2.042,0,0,1,1.36,1.978c.206,2.72.412,5.441.453,8.161.041,1.772-.206,3.545-.33,5.441,0,0-.289,2.968,1.2.536.577-1.4,1.237-2.679,1.69-4.081a22.978,22.978,0,0,0,.659-9.48,115.714,115.714,0,0,1-.742-16.9c.165-3.833.206-7.708.206-11.582a40.615,40.615,0,0,0-.412-4.452,5.131,5.131,0,0,0-.165-.659,3.136,3.136,0,0,0-1.237,2.556c-.165,1.978-.206,4-.495,5.977a22.345,22.345,0,0,1-1.154,4.9c-1.649,4.081-5.029,5.688-9.233,4.452a29.218,29.218,0,0,1-5.152-2.061,15.152,15.152,0,0,0-9.686-1.36,7.1,7.1,0,0,0-.866.289.309.309,0,0,1-.041.206,9.709,9.709,0,0,0,1.443.453c5.317.742,10.057,3.091,14.674,5.647C62.273,113.576,63.221,116.832,61.531,120.253Z" transform="translate(-34.508 -68.401)" fill="#950063"/><path d="M120.563,53.722a4.785,4.785,0,0,1-4.781,4.781A4.874,4.874,0,0,1,111,53.68a4.759,4.759,0,0,1,4.987-4.781A4.676,4.676,0,0,1,120.563,53.722Z" transform="translate(-74.538 -43.829)" fill="#950063"/><path d="M154.946,123.914a2.429,2.429,0,0,1-2.473,2.473,2.494,2.494,0,0,1,0-4.987A2.543,2.543,0,0,1,154.946,123.914Z" transform="translate(-97.463 -86.447)" fill="#950063"/><path d="M88.2,123.673a2.455,2.455,0,0,1-2.432,2.514,2.48,2.48,0,0,1-2.473-2.473,2.455,2.455,0,0,1,2.432-2.514A2.429,2.429,0,0,1,88.2,123.673Z" transform="translate(-58.256 -86.329)" fill="#950063"/><g transform="translate(31.788)"><g transform="translate(8.466)"><path d="M121.684,42.1v1.608a.742.742,0,1,1-1.484,0V42.1Z" transform="translate(-120.2 -39.833)" fill="#950063"/><path d="M121.684,37.342v1.566H120.2V37.342a.739.739,0,0,1,.742-.742.868.868,0,0,1,.536.206A.784.784,0,0,1,121.684,37.342Z" transform="translate(-120.2 -36.6)" fill="#950063"/></g><path d="M134.751,48.713l-1.2,1.072a.731.731,0,0,1-.948-1.113l1.2-1.072Z" transform="translate(-118.866 -43.066)" fill="#950063"/><path d="M137.943,45.938l-1.154,1.03-.989-1.113,1.154-1.03a.691.691,0,0,1,1.03.082.649.649,0,0,1,.165.536A.533.533,0,0,1,137.943,45.938Z" transform="translate(-120.904 -41.321)" fill="#950063"/><path d="M137.221,63.75l-1.566-.33a.736.736,0,0,1,.289-1.443l1.566.33Z" transform="translate(-120.47 -51.508)" fill="#950063"/><path d="M141.825,64.572l-1.525-.33.289-1.443,1.525.33a.738.738,0,0,1,.577.866.638.638,0,0,1-.33.453A.594.594,0,0,1,141.825,64.572Z" transform="translate(-123.55 -52.001)" fill="#950063"/><path d="M128.508,74.333l-.866-1.36a.749.749,0,0,1,1.278-.783l.866,1.36Z" transform="translate(-116.044 -57.31)" fill="#950063"/><path d="M130.824,78.1,130,76.783,131.237,76l.824,1.319a.753.753,0,0,1-.247,1.03.631.631,0,0,1-.536.082A.638.638,0,0,1,130.824,78.1Z" transform="translate(-117.495 -59.76)" fill="#950063"/><g transform="translate(1.341 3.798)"><path d="M104.475,48.117l-1.278-.989a.734.734,0,0,1,.907-1.154l1.278.989Z" transform="translate(-102.914 -45.814)" fill="#950063"/><path d="M107.937,50.7l-1.237-.948.907-1.154,1.237.948a.725.725,0,0,1,.124,1.03.764.764,0,0,1-.495.289A.907.907,0,0,1,107.937,50.7Z" transform="translate(-105.14 -47.452)" fill="#950063"/></g><path d="M113.878,77l-.742,1.443a.729.729,0,0,1-1.278-.7L112.6,76.3Z" transform="translate(-106.773 -59.936)" fill="#950063"/><path d="M115.761,73.048l-.742,1.4-1.319-.7.742-1.4a.7.7,0,0,1,.989-.289.829.829,0,0,1,.371.453A.8.8,0,0,1,115.761,73.048Z" transform="translate(-107.914 -57.385)" fill="#950063"/><g transform="translate(0 10.825)"><path d="M102.109,65.143l-1.566.33a.736.736,0,0,1-.289-1.443l1.566-.33Z" transform="translate(-99.662 -63.354)" fill="#950063"/><path d="M106.714,64.32l-1.525.33-.289-1.443,1.525-.33a.718.718,0,0,1,.866.577.594.594,0,0,1-.124.536A.638.638,0,0,1,106.714,64.32Z" transform="translate(-102.741 -62.862)" fill="#950063"/></g><g transform="translate(4.986 14.574)"><path d="M113.878,77l-.742,1.4a.729.729,0,1,1-1.278-.7l.742-1.4Z" transform="translate(-111.759 -74.511)" fill="#950063"/><path d="M115.761,73.048l-.742,1.36-1.319-.7.742-1.36a.7.7,0,0,1,.989-.289.829.829,0,0,1,.371.453A.616.616,0,0,1,115.761,73.048Z" transform="translate(-112.9 -71.959)" fill="#950063"/></g></g><g transform="translate(43.314 65.784)"><path d="M128.645,198.261a1.031,1.031,0,0,0,0-2.061,1.031,1.031,0,0,0,0,2.061Z" transform="translate(-127.625 -196.2)" fill="#950063"/></g><g transform="translate(48.796 62.693)"><path d="M141.945,190.761a1.031,1.031,0,0,0,0-2.061,1.031,1.031,0,0,0,0,2.061Z" transform="translate(-140.925 -188.7)" fill="#950063"/></g><path d="M139.646,208.9l-7.708,3.71-2.638-5.441,7.708-3.71a3.025,3.025,0,0,1,4.039,1.4h0A2.979,2.979,0,0,1,139.646,208.9Z" transform="translate(-85.295 -134.505)" fill="#950063"/><path d="M88.265,208l7.708,3.71,2.638-5.441-7.708-3.71a3.025,3.025,0,0,0-4.039,1.4h0A3.025,3.025,0,0,0,88.265,208Z" transform="translate(-60.17 -133.976)" fill="#950063"/><g transform="translate(36.833 72.791)"><circle cx="0.577" cy="0.577" r="0.577" transform="translate(7.914 3.091)" fill="#950063"/><circle cx="0.577" cy="0.577" r="0.577" transform="translate(6.512 2.638)" fill="#950063"/><circle cx="0.495" cy="0.495" r="0.495" transform="translate(0 8.326)" fill="#950063"/><circle cx="0.495" cy="0.495" r="0.495" transform="translate(5.152 2.391)" fill="#950063"/><circle cx="0.495" cy="0.495" r="0.495" transform="translate(5.606 4.658)" fill="#950063"/><circle cx="0.495" cy="0.495" r="0.495" transform="translate(5.07 10.552)" fill="#950063"/><circle cx="0.495" cy="0.495" r="0.495" transform="translate(6.224 5.812)" fill="#950063"/><circle cx="0.453" cy="0.453" r="0.453" transform="translate(5.523 6.883)" fill="#950063"/><circle cx="0.247" cy="0.247" r="0.247" transform="translate(5.688 8.285)" fill="#950063"/><circle cx="0.577" cy="0.577" r="0.577" transform="translate(4.699 9.398)" fill="#950063"/><circle cx="0.247" cy="0.247" r="0.247" transform="translate(2.514 11.582)" fill="#950063"/><circle cx="0.247" cy="0.247" r="0.247" transform="translate(4.245 14.55)" fill="#950063"/><circle cx="0.247" cy="0.247" r="0.247" transform="translate(4.081 10.882)" fill="#950063"/><circle cx="0.124" cy="0.124" r="0.124" transform="translate(2.803 12.86)" fill="#950063"/><circle cx="0.495" cy="0.495" r="0.495" transform="translate(5.276 11.747)" fill="#950063"/><circle cx="0.577" cy="0.577" r="0.577" transform="translate(2.968 14.303)" fill="#950063"/><circle cx="0.495" cy="0.495" r="0.495" transform="translate(1.855 13.107)" fill="#950063"/><circle cx="0.33" cy="0.33" r="0.33" transform="translate(4.452 2.226)" fill="#950063"/><circle cx="0.33" cy="0.33" r="0.33" transform="translate(4.74 3.71)" fill="#950063"/><circle cx="0.33" cy="0.33" r="0.33" transform="translate(3.545 4.452)" fill="#950063"/><circle cx="0.247" cy="0.247" r="0.247" transform="translate(6.059 4.328)" fill="#950063"/><circle cx="0.289" cy="0.289" r="0.289" transform="translate(8.986 4.369)" fill="#950063"/><circle cx="0.247" cy="0.247" r="0.247" transform="translate(7.296 4.369)" fill="#950063"/><circle cx="0.247" cy="0.247" r="0.247" transform="translate(7.667 5.482)" fill="#950063"/><circle cx="0.577" cy="0.577" r="0.577" transform="translate(3.586 5.4)" fill="#950063"/><circle cx="0.289" cy="0.289" r="0.289" transform="translate(4.781 4.575)" fill="#950063"/><circle cx="0.495" cy="0.495" r="0.495" transform="translate(6.883 1.237)" fill="#950063"/><circle cx="0.33" cy="0.33" r="0.33" transform="translate(5.647 1.36)" fill="#950063"/><circle cx="0.412" cy="0.412" r="0.412" transform="translate(4.823 5.812)" fill="#950063"/><circle cx="0.412" cy="0.412" r="0.412" transform="translate(3.05 8.779)" fill="#950063"/><circle cx="0.33" cy="0.33" r="0.33" transform="translate(4.699 7.584)" fill="#950063"/><circle cx="0.412" cy="0.412" r="0.412" transform="translate(5.853 8.903)" fill="#950063"/><circle cx="0.289" cy="0.289" r="0.289" transform="translate(4.864 8.532)" fill="#950063"/><circle cx="0.165" cy="0.165" r="0.165" transform="translate(3.998 9.727)" fill="#950063"/><circle cx="0.165" cy="0.165" r="0.165" transform="translate(4.287 11.994)" fill="#950063"/><circle cx="0.165" cy="0.165" r="0.165" transform="translate(2.597 15.045)" fill="#950063"/><circle cx="0.289" cy="0.289" r="0.289" transform="translate(4.204 7.007)" fill="#950063"/><circle cx="0.577" cy="0.577" r="0.577" transform="translate(5.358)" fill="#950063"/></g><g transform="translate(34.524 72.297)"><circle cx="0.577" cy="0.577" r="0.577" transform="translate(0 3.133)" fill="#950063"/><circle cx="0.577" cy="0.577" r="0.577" transform="translate(1.443 2.638)" fill="#950063"/><circle cx="0.495" cy="0.495" r="0.495" transform="translate(6.059 8.697)" fill="#950063"/><circle cx="0.495" cy="0.495" r="0.495" transform="translate(2.968 2.391)" fill="#950063"/><circle cx="0.495" cy="0.495" r="0.495" transform="translate(2.514 4.699)" fill="#950063"/><circle cx="0.495" cy="0.495" r="0.495" transform="translate(5.317 10.263)" fill="#950063"/><circle cx="0.495" cy="0.495" r="0.495" transform="translate(1.896 5.853)" fill="#950063"/><circle cx="0.453" cy="0.453" r="0.453" transform="translate(2.638 6.925)" fill="#950063"/><circle cx="0.247" cy="0.247" r="0.247" transform="translate(2.926 8.326)" fill="#950063"/><circle cx="0.577" cy="0.577" r="0.577" transform="translate(3.215 9.439)" fill="#950063"/><circle cx="0.247" cy="0.247" r="0.247" transform="translate(6.059 11.624)" fill="#950063"/><circle cx="0.247" cy="0.247" r="0.247" transform="translate(4.534 10.882)" fill="#950063"/><circle cx="0.124" cy="0.124" r="0.124" transform="translate(6.018 12.86)" fill="#950063"/><circle cx="0.495" cy="0.495" r="0.495" transform="translate(3.71 11.376)" fill="#950063"/><circle cx="0.577" cy="0.577" r="0.577" transform="translate(5.729 13.52)" fill="#950063"/><circle cx="0.495" cy="0.495" r="0.495" transform="translate(4.905 11.994)" fill="#950063"/><circle cx="0.33" cy="0.33" r="0.33" transform="translate(3.998 2.226)" fill="#950063"/><circle cx="0.33" cy="0.33" r="0.33" transform="translate(3.71 3.71)" fill="#950063"/><circle cx="0.33" cy="0.33" r="0.33" transform="translate(4.905 4.493)" fill="#950063"/><circle cx="0.247" cy="0.247" r="0.247" transform="translate(2.514 4.328)" fill="#950063"/><circle cx="0.247" cy="0.247" r="0.247" transform="translate(1.319 4.369)" fill="#950063"/><circle cx="0.247" cy="0.247" r="0.247" transform="translate(1.443 5.358)" fill="#950063"/><circle cx="0.577" cy="0.577" r="0.577" transform="translate(4.616 5.977)" fill="#950063"/><circle cx="0.289" cy="0.289" r="0.289" transform="translate(3.751 4.616)" fill="#950063"/><circle cx="0.289" cy="0.289" r="0.289" transform="translate(11.376 5.564)" fill="#950063"/><circle cx="0.495" cy="0.495" r="0.495" transform="translate(1.195 1.278)" fill="#950063"/><circle cx="0.33" cy="0.33" r="0.33" transform="translate(2.762 1.36)" fill="#950063"/><circle cx="0.412" cy="0.412" r="0.412" transform="translate(3.71 5.771)" fill="#950063"/><circle cx="0.412" cy="0.412" r="0.412" transform="translate(5.152 7.296)" fill="#950063"/><circle cx="0.33" cy="0.33" r="0.33" transform="translate(3.71 7.584)" fill="#950063"/><circle cx="0.412" cy="0.412" r="0.412" transform="translate(5.111 8.367)" fill="#950063"/><circle cx="0.289" cy="0.289" r="0.289" transform="translate(3.833 8.903)" fill="#950063"/><circle cx="0.165" cy="0.165" r="0.165" transform="translate(4.864 9.727)" fill="#950063"/><circle cx="0.289" cy="0.289" r="0.289" transform="translate(4.452 8.326)" fill="#950063"/><circle cx="0.577" cy="0.577" r="0.577" transform="translate(2.597)" fill="#950063"/></g><line y1="0.165" transform="translate(40.254 88.66)" fill="none"/></g><g transform="translate(116.913 67.308)"><path d="M262.217,119.673v8.9h14.344v8.285H262.217v9.645h16.24v8.573H251.5V111.1h26.957v8.573Z" transform="translate(-251.5 -111.1)" fill="#950063"/><path d="M383.533,111.1v44.021H372.816v-26.38l-9.851,26.38h-8.656l-9.892-26.462v26.462H333.7V111.1h12.654l12.365,30.46,12.242-30.46Z" transform="translate(-299.819 -111.1)" fill="#950063"/><path d="M484.017,119.673v8.9h14.344v8.285H484.017v9.645h16.24v8.573H473.3V111.1h26.957v8.573Z" transform="translate(-381.878 -111.1)" fill="#950063"/><path d="M584.247,113.862a19.68,19.68,0,0,1,8.037,7.749,24.587,24.587,0,0,1,0,22.959,19.882,19.882,0,0,1-8.079,7.79,25.509,25.509,0,0,1-12.118,2.762H555.6V111.1h16.487A25.334,25.334,0,0,1,584.247,113.862Zm-3.38,28.647c2.267-2.226,3.38-5.358,3.38-9.4s-1.113-7.213-3.38-9.48-5.4-3.38-9.48-3.38h-5.07v25.555h5.07C575.467,145.847,578.6,144.734,580.867,142.508Z" transform="translate(-430.256 -111.1)" fill="#950063"/><path d="M676.917,111.1v44.021H666.2V111.1Z" transform="translate(-495.268 -111.1)" fill="#950063"/><path d="M721.717,146.836h14.055v8.285H711V111.1h10.717Z" transform="translate(-521.603 -111.1)" fill="#950063"/><path d="M794.317,111.1v44.021H783.6V111.1Z" transform="translate(-564.278 -111.1)" fill="#950063"/><path d="M857.106,111.1v8.573h-17.93v9.274h13.437v8.326h-13.4V155.08H828.5V111.1Z" transform="translate(-590.671 -111.1)" fill="#950063"/><path d="M922.317,119.673v8.9h14.344v8.285H922.317v9.645h16.24v8.573H911.6V111.1h26.957v8.573Z" transform="translate(-639.519 -111.1)" fill="#950063"/></g></g></svg>